# xmcd CD database file
#
# Track frame offsets:
#	150
#	13348
#	26910
#	40832
#	54102
#	65227
#	78903
#	91206
#	102345
#	114603
#	126659
#	140444
#	151112
#	164881
#	177979
#	188280
#	198157
#	209628
#	218823
#	230755
#	242603
#	254067
#	264580
#	278480
#	288634
#	300148
#
# Disc length: 4167 seconds
#
# Revision: 7
# Processed by: cddbd v1.5.2PL0 Copyright (c) Steve Scherf et al.
# Submitted via: CDex 1.79
#
DISCID=7f10451a
DTITLE=Lefty Frizzell - Three Classic Albums Plus Singles CD 2
DYEAR=2015
DGENRE=Country
TTITLE0=If You've Got The Money, I've Got The Time
TTITLE1=I Want To Be With You Always
TTITLE2=Always Late (With Your Kisses)
TTITLE3=Don't Stay Away (Till Love Grows Old)
TTITLE4=If You Can Spare The Time (I Won't Miss The Money)
TTITLE5=Mom And Dad's Waltz
TTITLE6=I love You A Thousand Ways
TTITLE7=Look What Thoughts Will Do
TTITLE8=Before You Go Make Sure You Know
TTITLE9=Two Friends Of Mine In Love
TTITLE10=Hopeless Love
TTITLE11=Then I'll Come Back To You
TTITLE12=Run 'em Off
TTITLE13=The Darkest Moment
TTITLE14=My Little Her And Him
TTITLE15=I've Been Away To Long
TTITLE16=A King Without A Queen
TTITLE17=You Can Always Count On Me
TTITLE18=You're Too Late
TTITLE19=Two Hearts Broken Now
TTITLE20=I Love You Mostly
TTITLE21=Mama
TTITLE22=Making Believe
TTITLE23=A Forest Fire (Is In Your Heart)
TTITLE24=Moonlight, Darling And You
TTITLE25=I'll Sit Alone And Cry
EXTD=YEAR: 2015
EXTT0=
EXTT1=
EXTT2=
EXTT3=
EXTT4=
EXTT5=
EXTT6=
EXTT7=
EXTT8=
EXTT9=
EXTT10=
EXTT11=
EXTT12=
EXTT13=
EXTT14=
EXTT15=
EXTT16=
EXTT17=
EXTT18=
EXTT19=
EXTT20=
EXTT21=
EXTT22=
EXTT23=
EXTT24=
EXTT25=
PLAYORDER=
